# xmcd
#
# Track frame offsets:
#	150
#	11937
#	26292
#	38715
#	51597
#	67937
#	87095
#	98132
#	110727
#	122522
#	132495
#	142507
#	152415
#	162200
#	176377
#	205195
#	214757
#	227915
#
# Disc length: 3236
#
# Revision: 2
# Processed by: cddbd v1.5.1PL0 Copyright (c) Steve Scherf et al.
# Submitted via: audiograbber 1.80
# Normalized: r1:DSETVAR1
#
DISCID=e90ca212
DTITLE=Various Artist - A Decade Of Pop - The 60s
DYEAR=1900
DGENRE=
TTITLE0=Long John Baldry - Mexico
TTITLE1=Dave Davies - Death Of A Clown
TTITLE2=Donovan - Colours
TTITLE3=Fleetwood Mac - Man Of The World
TTITLE4=Chris Farlowe - Out Of Time
TTITLE5=Humble Pie - Natural Born Bugie
TTITLE6=The Lemon Pipers - Green Tambourine
TTITLE7=The Migil 5 - Mockingbird Hill
TTITLE8=The Rockin' Berries - He's In Town
TTITLE9=Sandie Shaw - Girl Don't Come
TTITLE10=The Searchers - Needles And Pins
TTITLE11=Status Quo - Ice In The Sun
TTITLE12=Mark Wynter - Venus In Blue Jeans
TTITLE13=The Tremeloes - Silence Is Golden
TTITLE14=The Nice - America
TTITLE15=The Ivy League - Funny How Love Can Be
TTITLE16=The Foundations - Build Be Up Buttercup
TTITLE17=P P Arnold - The First Cut Is The Deepest
EXTD=
EXTT0=
EXTT1=
EXTT2=
EXTT3=
EXTT4=
EXTT5=
EXTT6=
EXTT7=
EXTT8=
EXTT9=
EXTT10=
EXTT11=
EXTT12=
EXTT13=
EXTT14=
EXTT15=
EXTT16=
EXTT17=
PLAYORDER=
